inDegrees=yes
name=ik_S44_A02_T01
DataType=double
version=3
OpenSimVersion=4.3-2021-08-27-4bc7ad9
endheader
time	pelvis_tilt	pelvis_list	pelvis_rotation	pelvis_tx	pelvis_ty	pelvis_tz	hip_flexion_r	hip_adduction_r	hip_rotation_r	knee_angle_r	knee_angle_r_beta	ankle_angle_r	subtalar_angle_r	mtp_angle_r	hip_flexion_l	hip_adduction_l	hip_rotation_l	knee_angle_l	knee_angle_l_beta	ankle_angle_l	subtalar_angle_l	mtp_angle_l	lumbar_extension	lumbar_bending	lumbar_rotation	arm_flex_r	arm_add_r	arm_rot_r	elbow_flex_r	pro_sup_r	wrist_flex_r	wrist_dev_r	arm_flex_l	arm_add_l	arm_rot_l	elbow_flex_l	pro_sup_l	wrist_flex_l	wrist_dev_l
45.98000000000159	-1.367980766647451	1.40616896609908	86.32955145557197	0	0.9399999999999999	0	-8.49935564811709	-7.895575147547789	-1.821202476329807	21.40689274027453	0.3736207609390618	0	0	0	13.87533437383296	-0.9664566983408713	-8.405221528510411	11.57921820370973	0.2020954824615983	0	0	0	0	0	0	41.85413149562027	-41.85413149562031	4.954706910762231	84.38545554726041	85.04529336182594	0	0	41.85413149562027	-41.85413149562031	4.954706910762231	84.38545554726041	85.04529336181693	0	0
46.00000000000159	-1.328482458021886	0.9621485891400545	86.53646940348817	0	0.9399999999999999	0	-9.615065184212662	-6.987749487776827	-2.021019061252392	17.04026919865611	0.2974088029427247	0	0	0	15.67515306052022	-1.112167495105993	-7.748658151561358	11.84803323437377	0.2067871898255352	0	0	0	0	0	0	41.85572665250332	-41.85572665250335	4.954752862345778	84.38607905327007	85.04524741024426	0	0	41.85572665250332	-41.85572665250335	4.954752862345778	84.38607905327007	85.04524741023525	0	0
46.02000000000159	-1.161707087623593	0.4875167889840972	86.71356982570757	0	0.9399999999999999	0	-9.51993080400907	-6.011682977915773	-1.913187804487478	14.319617248645	0.2499244686142267	0	0	0	17.37164380138092	-1.425483790214212	-7.300255904465035	11.80169509081242	0.205978436651128	0	0	0	0	0	0	41.85693152376494	-41.85693152376497	4.954787635449309	84.38655088125145	85.04521263714214	0	0	41.85693152376494	-41.85693152376497	4.954787635449309	84.38655088125145	85.04521263713312	0	0
46.0400000000016	-0.9192163035613338	-0.005118986695450352	87.01429774737453	0	0.9399999999999999	0	-9.03332334339329	-5.328051199399395	-2.142267168216276	11.27994671664182	0.1968722096549237	0	0	0	18.86154090977641	-1.824321499109055	-7.116131220756782	11.48112482511231	0.200383430030668	0	0	0	0	0	0	41.85837310736098	-41.858373107361	4.95482929119321	84.38711609819926	85.04517098139995	0	0	41.85837310736098	-41.858373107361	4.95482929119321	84.38711609819926	85.04517098139092	0	0
46.0600000000016	-0.7610251254059253	-0.2147426641985191	87.18181727681804	0	0.9399999999999999	0	-9.233434839844142	-4.654455824565262	-2.580213444393047	8.416536432604822	0.146896272363012	0	0	0	19.90500623402647	-2.236514622819679	-7.58886084077441	11.68272788550196	0.2039020672165644	0	0	0	0	0	0	41.85957505294119	-41.85957505294122	4.954863958956307	84.38758649675624	85.04513631363822	0	0	41.85957505294119	-41.85957505294122	4.954863958956307	84.38758649675624	85.04513631362923	0	0
46.0800000000016	-0.4375015055833336	-0.5090436873201628	87.64557777532225	0	0.9399999999999999	0	-9.245250211108388	-4.054001614860611	-3.970690023015118	5.720050139766316	0.09983370831808405	0	0	0	20.13818657304538	-2.535424296103394	-7.299530378856748	8.536173328564846	0.1489843301043803	0	0	0	0	0	0	41.86082847458018	-41.86082847458021	4.954899929928626	84.3880745779294	85.04510034266742	0	0	41.86082847458018	-41.86082847458021	4.954899929928626	84.3880745779294	85.04510034265843	0	0
46.10000000000161	-0.09534978857760376	-0.4393729569402851	88.19576527199149	0	0.9399999999999999	0	-9.017893903077828	-3.664394197329594	-5.130118088398404	5.508651112353655	0.09614409925421935	0	0	0	21.65467288654657	-3.286052568617633	-7.165946858307493	8.639778951466052	0.150792589347586	0	0	0	0	0	0	41.86941675273775	-41.86941675273778	4.955111964323716	84.39095156416583	85.0448883082807	0	0	41.86941675273775	-41.86941675273778	4.955111964323716	84.39095156416583	85.04488830827174	0	0
46.12000000000161	0.2655401418730059	-0.3374198669206214	88.54773685171348	0	0.9399999999999999	0	-8.327343743607877	-2.983787273600707	-4.620823129033831	4.865728539133331	0.08492298351613038	0	0	0	22.07478870045984	-3.829331184288172	-6.867205487212468	8.493701986671901	0.1482430653506082	0	0	0	0	0	0	41.87052984683409	-41.87052984683412	4.955144102402391	84.39138763794932	85.04485617020337	0	0	41.87052984683409	-41.87052984683412	4.955144102402391	84.39138763794932	85.04485617019441	0	0
46.14000000000161	0.5950892709396119	-0.2749394132583316	88.90401891473448	0	0.9399999999999999	0	-7.620872571970085	-2.501036803291889	-4.823908984399382	5.10453916440416	0.08909101521585272	0	0	0	22.12919798961844	-4.323714599992321	-7.374866120773004	7.357871238696995	0.1284190790530562	0	0	0	0	0	0	41.87149894240261	-41.87149894240265	4.955172051170524	84.39176686792476	85.04482822143639	0	0	41.87149894240261	-41.87149894240265	4.955172051170524	84.39176686792476	85.04482822142742	0	0
46.16000000000162	0.7489261293973076	-0.1270029375238449	89.38768622953791	0	0.9399999999999999	0	-7.115982715844904	-2.030290283809362	-5.252455091446208	4.309585804918713	0.07521646169304158	0	0	0	21.77912107780255	-4.674749428523587	-8.510213182165053	6.051238372724863	0.1056140334270727	0	0	0	0	0	0	41.87263266677041	-41.87263266677044	4.95520473971342	84.39221041070805	85.04479553289481	0	0	41.87263266677041	-41.87263266677044	4.95520473971342	84.39221041070805	85.04479553288584	0	0
46.18000000000162	0.5714363906040831	-0.299340400957151	89.91521949054406	0	0.9399999999999999	0	-6.411048382296353	-1.792066884874876	-5.66822786962557	3.437904047476658	0.06000274499610714	0	0	0	21.75929600736813	-4.660631262523462	-9.978259954171858	5.486804913208692	0.09576281115009339	0	0	0	0	0	0	41.87432307709003	-41.87432307709007	4.955251189303206	84.39284066997722	85.0447490833069	0	0	41.87432307709003	-41.87432307709007	4.955251189303206	84.39284066997722	85.04474908329796	0	0
46.20000000000162	0.1828598297171612	-0.07528696612086568	90.13111585788285	0	0.9399999999999999	0	-5.850238799305025	-1.794598876917302	-5.297950382046121	3.241774168220441	0.05657963284154721	0	0	0	21.07551740580618	-4.328558684375385	-11.83717724299321	5.801051656674916	0.101247451487249	0	0	0	0	0	0	41.87910353679556	-41.8791035367956	4.95537130292804	84.39447043415841	85.04462896968681	0	0	41.87910353679556	-41.8791035367956	4.95537130292804	84.39447043415841	85.04462896967792	0	0
46.22000000000163	-0.2623572896682304	-0.04319953197420238	90.41439417049834	0	0.9399999999999999	0	-5.897200668238446	-2.096193670918194	-5.492527627786562	2.356607373617061	0.04113055784639386	0	0	0	20.57365429444383	-4.003672868766729	-12.92898032823619	7.149314038837447	0.1247790692367672	0	0	0	0	0	0	41.87999215559088	-41.87999215559091	4.955396906373537	84.39481784089899	85.0446033662424	0	0	41.87999215559088	-41.87999215559091	4.955396906373537	84.39481784089899	85.04460336623349	0	0
46.24000000000163	-0.6760019035266538	-0.153934364609268	90.72130234107865	0	0.9399999999999999	0	-4.593927572796118	-2.21006937455078	-5.467147293162902	2.49618505167596	0.04356664789081029	0	0	0	20.58992082638153	-3.630902646048567	-12.92409206640435	7.132410920172217	0.1244840541622036	0	0	0	0	0	0	41.88746170535583	-41.88746170535586	4.955579543312556	84.39729594462501	85.04442072931054	0	0	41.88746170535583	-41.88746170535586	4.955579543312556	84.39729594462501	85.04442072930169	0	0
46.26000000000163	-0.9521801885218303	-0.4778030958167166	91.01260261261272	0	0.9399999999999999	0	-4.254181844959906	-2.390958923712955	-5.707686788242798	1.797227119329633	0.03136753063843511	0	0	0	20.91784292391348	-3.750059508691892	-12.06504829915472	12.62126897087503	0.2202826993215656	0	0	0	0	0	0	41.93793524563818	-41.93793524563821	4.956820994728558	84.41414054496728	85.04317927794327	0	0	41.93793524563818	-41.93793524563821	4.956820994728558	84.41414054496728	85.04317927793463	0	0
46.28000000000164	-1.142352927532958	-0.7196664287561192	91.17975188870254	0	0.9399999999999999	0	-2.95686428920936	-2.35777747797383	-6.193966895132627	1.991344828970902	0.0347555238081056	0	0	0	21.28280323446917	-3.872738381830573	-10.81830061683342	14.37025517901205	0.2508082672255275	0	0	0	0	0	0	41.93932674570561	-41.93932674570564	4.956860482709406	84.41467634565971	85.04313978996399	0	0	41.93932674570561	-41.93932674570564	4.956860482709406	84.41467634565971	85.04313978995535	0	0
46.30000000000164	-1.26754684146175	-0.582735544620419	91.21300044338922	0	0.9399999999999999	0	-2.595965626372876	-2.405337471988734	-6.552003261554167	1.602122825299977	0.02796231832283851	0	0	0	20.81926002054724	-4.36732586626549	-9.687532785787125	20.89047694946171	0.3646076050800878	0	0	0	0	0	0	41.97515782034433	-41.97515782034436	4.957719897482253	84.42633725861658	85.04228037522465	0	0	41.97515782034433	-41.97515782034436	4.957719897482253	84.42633725861658	85.04228037521622	0	0
46.32000000000164	-1.308546787916007	-0.4530194497288661	91.18014973429196	0	0.9399999999999999	0	-2.284575781558926	-2.349018798686755	-6.649218174654743	1.095561150555788	0.0191211492341358	0	0	0	19.86537550986037	-4.661951976203959	-9.683305450599152	23.6812152398821	0.4133151768094014	0	0	0	0	0	0	41.97628989102963	-41.97628989102967	4.957751571209267	84.42676702895032	85.04224870149893	0	0	41.97628989102963	-41.97628989102967	4.957751571209267	84.42676702895032	85.04224870149051	0	0
